<?xml version="1.0" encoding="UTF-8" standalone="no"?>
<svg
   xmlns:dc="http://purl.org/dc/elements/1.1/"
   xmlns:cc="http://creativecommons.org/ns#"
   xmlns:rdf="http://www.w3.org/1999/02/22-rdf-syntax-ns#"
   xmlns:svg="http://www.w3.org/2000/svg"
   xmlns="http://www.w3.org/2000/svg"
   xmlns:sodipodi="http://sodipodi.sourceforge.net/DTD/sodipodi-0.dtd"
   xmlns:inkscape="http://www.inkscape.org/namespaces/inkscape"
   width="24"
   height="24"
   viewBox="0 0 24 24"
   fill="none"
   stroke="#ffffff"
   stroke-width="2"
   stroke-linecap="round"
   stroke-linejoin="round"
   class="feather feather-message-circle"
   version="1.1"
   id="svg4"
   sodipodi:docname="choice.svg"
   inkscape:version="1.0 (4035a4fb49, 2020-05-01)">
  <metadata
     id="metadata10">
    <rdf:RDF>
      <cc:Work
         rdf:about="">
        <dc:format>image/svg+xml</dc:format>
        <dc:type
           rdf:resource="http://purl.org/dc/dcmitype/StillImage" />
        <dc:title />
      </cc:Work>
    </rdf:RDF>
  </metadata>
  <defs
     id="defs8" />
  <sodipodi:namedview
     inkscape:document-rotation="0"
     pagecolor="#000000"
     bordercolor="#666666"
     borderopacity="1"
     objecttolerance="10"
     gridtolerance="10"
     guidetolerance="10"
     inkscape:pageopacity="0"
     inkscape:pageshadow="2"
     inkscape:window-width="2560"
     inkscape:window-height="1365"
     id="namedview6"
     showgrid="false"
     inkscape:zoom="29.791667"
     inkscape:cx="7.6299278"
     inkscape:cy="8.5253194"
     inkscape:window-x="1440"
     inkscape:window-y="560"
     inkscape:window-maximized="1"
     inkscape:current-layer="svg4" />
  <path
     id="path2-3"
     d="m 7.8349836,14.382868 a 6.539575,6.539575 0 0 0 0.7023421,2.965441 6.6332206,6.6332206 0 0 0 5.9308793,3.66778 6.539575,6.539575 0 0 0 2.965441,-0.702341 l 4.448159,1.48272 -1.48272,-4.448159 a 6.539575,6.539575 0 0 0 0.702341,-2.965441 6.6332206,6.6332206 0 0 0 -3.66778,-5.9308785 6.539575,6.539575 0 0 0 -2.965441,-0.7023421 h -0.39019 A 6.617613,6.617613 0 0 0 7.8349836,13.99268 Z"
     style="stroke-width:1.56076" />
  <path
     style="stroke-width:2.10948"
     id="path4"
     d="M 5.7189609,16.150992 H 4.6642206 A 2.1094806,2.1094806 0 0 1 2.55474,14.041511 V 4.5488482 A 2.1094806,2.1094806 0 0 1 4.6642206,2.4393676 h 9.4926634 a 2.1094806,2.1094806 0 0 1 2.10948,2.1094806 v 1.0547403" />
  <path
     style="fill:none;stroke:#000000;stroke-width:0.84924px;stroke-linecap:butt;stroke-linejoin:miter;stroke-opacity:1"
     d="m 10.560073,12.383792 c 7.857086,0 7.857086,-0.06673 7.857086,-0.06673"
     id="path70" />
  <path
     style="fill:none;stroke:#ffffff;stroke-width:1.64583;stroke-linecap:butt;stroke-linejoin:miter;stroke-miterlimit:4;stroke-dasharray:none;stroke-opacity:1"
     d="m 10.560073,12.383792 h 7.896146"
     id="path901" />
  <path
     id="path901-7"
     d="m 10.532761,16.279173 h 7.896148"
     style="fill:none;stroke:#ffffff;stroke-width:1.64583;stroke-linecap:butt;stroke-linejoin:miter;stroke-miterlimit:4;stroke-dasharray:none;stroke-opacity:1" />
  <path
     id="path901-6"
     d="M 5.2785821,5.8848831 H 13.174729"
     style="fill:none;stroke:#ffffff;stroke-width:1.64539;stroke-linecap:butt;stroke-linejoin:miter;stroke-miterlimit:4;stroke-dasharray:none;stroke-opacity:1" />
  <path
     style="fill:none;stroke:#ffffff;stroke-width:1.64539;stroke-linecap:butt;stroke-linejoin:miter;stroke-miterlimit:4;stroke-dasharray:none;stroke-opacity:1"
     d="M 5.3687199,9.5602276 H 7.7887994"
     id="path901-6-7" />
  <path
     id="path901-6-7-5"
     d="M 5.2765739,12.988144 H 6.78155"
     style="fill:none;stroke:#ffffff;stroke-width:1.64539;stroke-linecap:butt;stroke-linejoin:miter;stroke-miterlimit:4;stroke-dasharray:none;stroke-opacity:1" />
</svg>
